<svg id="Layer_1" data-name="Layer 1" xmlns="http://www.w3.org/2000/svg" viewBox="0 0 24 24"><defs><style>.cls-1{fill:#26A587;}.cls-2{fill:#EF5350;}.cls-3{fill:#798897;}</style></defs><title>bidx</title><path class="cls-1" d="M20.78,17H11.44l-1.08-2.43a.47.47,0,0,1-.06-.09,1,1,0,0,0-.12-.16,1.07,1.07,0,0,0-.16-.14s0,0-.08-.07l-.07,0L9.68,14,9.5,14H9.31l-.2.05-.07,0L9,14.13a.88.88,0,0,0-.17.12.93.93,0,0,0-.13.15l-.07.08L6.06,18.9,3.9,14.54a1,1,0,0,0-1.8.88l3,6A1,1,0,0,0,6,22H6a1,1,0,0,0,.87-.5l2.47-4.33.54,1.22a1,1,0,0,0,.91.59h10a1,1,0,0,0,0-2Z"/><path class="cls-2" d="M20.78,7.15H11.44L10.36,9.57s0,.06-.06.09a1,1,0,0,1-.12.17L10,10s0,.06-.08.07,0,0-.07,0a.6.6,0,0,1-.19.06.57.57,0,0,1-.18,0,.61.61,0,0,1-.19,0l-.2,0-.07,0L9,10,8.78,9.9l-.13-.15a.71.71,0,0,0-.07-.09L6.06,5.25,3.9,9.61a1,1,0,0,1-1.8-.89l3-6A1,1,0,0,1,6,2.12H6a1,1,0,0,1,.87.51L9.34,7l.54-1.21a1,1,0,0,1,.91-.59h10a1,1,0,0,1,0,2Z"/><path class="cls-3" d="M21,14.92H12.69a1,1,0,0,1,0-2H21a1,1,0,0,1,0,2Z"/><path class="cls-3" d="M21,11.22H12.69a1,1,0,0,1,0-2H21a1,1,0,0,1,0,2Z"/></svg>
