<svg id="Layer_1" data-name="Layer 1" xmlns="http://www.w3.org/2000/svg" viewBox="0 0 24 24"><defs><style>.cls-1{fill:#EF5350;}.cls-2{fill:#798897;}</style></defs><title>bidx2</title><path class="cls-1" d="M20.78,8.58H11.44L10.36,11s0,.06-.06.09a1,1,0,0,1-.12.16.7.7,0,0,1-.16.14s0,0-.08.07l-.07,0-.19.07-.18,0a.61.61,0,0,1-.19,0,.73.73,0,0,1-.2-.05H9L9,11.45l-.17-.11a1,1,0,0,1-.13-.16l-.07-.08L6.06,6.69,3.9,11.05a1,1,0,0,1-1.8-.89l3-6A1,1,0,0,1,6,3.56H6a1,1,0,0,1,.87.51L9.34,8.39l.54-1.21a1,1,0,0,1,.91-.6h10a1,1,0,0,1,0,2Z"/><path class="cls-2" d="M21,16.55H12.69a1,1,0,0,1,0-2H21a1,1,0,0,1,0,2Z"/><path class="cls-2" d="M21,12.66H12.69a1,1,0,0,1,0-2H21a1,1,0,0,1,0,2Z"/><path class="cls-2" d="M21,20.44H3a1,1,0,0,1,0-2H21a1,1,0,0,1,0,2Z"/></svg>
