<svg id="Layer_1" data-name="Layer 1" xmlns="http://www.w3.org/2000/svg" viewBox="0 0 24 24"><defs><style>.cls-1{fill:#26A587;}.cls-2{fill:#798897;}</style></defs><title>bidx1</title><path class="cls-1" d="M20.78,15.42H11.44L10.36,13s0-.06-.06-.09a1,1,0,0,0-.12-.16A.7.7,0,0,0,10,12.6s0,0-.08-.07l-.07,0-.19-.07-.18,0a.61.61,0,0,0-.19,0,.73.73,0,0,0-.2.05H9L9,12.55l-.17.11a1,1,0,0,0-.13.16l-.07.08L6.06,17.31,3.9,13a1,1,0,0,0-1.8.89l3,6a1,1,0,0,0,.87.56H6a1,1,0,0,0,.87-.51l2.47-4.32.54,1.21a1,1,0,0,0,.91.6h10a1,1,0,0,0,0-2Z"/><path class="cls-2" d="M21,7.45H12.69a1,1,0,0,0,0,2H21a1,1,0,1,0,0-2Z"/><path class="cls-2" d="M21,11.34H12.69a1,1,0,0,0,0,2H21a1,1,0,0,0,0-2Z"/><path class="cls-2" d="M21,3.56H3a1,1,0,0,0,0,2H21a1,1,0,1,0,0-2Z"/></svg>
